<svg width="1030" height="392" viewBox="0 0 1030 392" fill="none" xmlns="http://www.w3.org/2000/svg">
<path d="M53.0159 312.063H0.527161L118.966 80.389H182.088L223.491 312.063H171.002L142.835 133.33H141.025L53.0159 312.063ZM65.0069 221H188.989L182.428 259.235H58.4458L65.0069 221Z" fill="url(#paint0_linear_9_2)"/>
<path d="M374.227 238.081L390.856 138.308H439.046L410.086 312.063H363.819L369.023 280.502H367.213C361.859 290.683 354.053 298.866 343.797 305.05C333.54 311.234 321.889 314.326 308.842 314.326C297.228 314.326 287.424 311.686 279.43 306.407C271.512 301.128 265.893 293.625 262.575 283.896C259.257 274.168 258.691 262.516 260.878 248.941L279.43 138.308H327.62L310.652 240.344C309.068 250.6 310.501 258.707 314.951 264.665C319.4 270.623 326.187 273.602 335.313 273.602C341.12 273.602 346.738 272.282 352.168 269.643C357.673 266.928 362.424 262.931 366.421 257.652C370.418 252.373 373.02 245.849 374.227 238.081Z" fill="url(#paint1_linear_9_2)"/>
<path d="M570.013 138.308L564.018 174.507H459.266L465.375 138.308H570.013ZM495.918 96.6786H544.108L517.185 258.67C516.431 263.119 516.544 266.588 517.524 269.077C518.505 271.49 520.126 273.187 522.389 274.168C524.727 275.148 527.517 275.638 530.76 275.638C533.022 275.638 535.322 275.45 537.66 275.072C539.998 274.62 541.77 274.281 542.977 274.054L544.787 309.914C542.072 310.744 538.414 311.649 533.814 312.629C529.289 313.609 523.935 314.213 517.751 314.439C505.986 314.892 496.031 313.346 487.886 309.801C479.742 306.181 473.897 300.638 470.352 293.172C466.808 285.706 466.054 276.317 468.09 265.005L495.918 96.6786Z" fill="url(#paint2_linear_9_2)"/>
<path d="M641.337 211.611L624.595 312.063H576.518L614.979 80.389H661.699L647.219 168.964H649.142C654.723 158.707 662.378 150.676 672.106 144.869C681.835 138.986 693.335 136.045 706.608 136.045C718.675 136.045 728.743 138.685 736.812 143.964C744.957 149.167 750.726 156.671 754.12 166.475C757.513 176.204 758.079 187.855 755.817 201.43L737.264 312.063H689.187L706.156 210.027C707.89 199.318 706.495 190.985 701.97 185.027C697.521 179.069 690.432 176.09 680.703 176.09C674.142 176.09 668.109 177.486 662.604 180.276C657.098 183.066 652.46 187.139 648.69 192.493C644.994 197.772 642.543 204.145 641.337 211.611Z" fill="url(#paint3_linear_9_2)"/>
<path d="M53.0159 312.063H0.527161L118.966 80.389H182.088L223.491 312.063H171.002L142.835 133.33H141.025L53.0159 312.063ZM65.0069 221H188.989L182.428 259.235H58.4458L65.0069 221Z" fill="url(#paint4_linear_9_2)"/>
<path d="M374.227 238.081L390.856 138.308H439.046L410.086 312.063H363.819L369.023 280.502H367.213C361.859 290.683 354.053 298.866 343.797 305.05C333.54 311.234 321.889 314.326 308.842 314.326C297.228 314.326 287.424 311.686 279.43 306.407C271.512 301.128 265.893 293.625 262.575 283.896C259.257 274.168 258.691 262.516 260.878 248.941L279.43 138.308H327.62L310.652 240.344C309.068 250.6 310.501 258.707 314.951 264.665C319.4 270.623 326.187 273.602 335.313 273.602C341.12 273.602 346.738 272.282 352.168 269.643C357.673 266.928 362.424 262.931 366.421 257.652C370.418 252.373 373.02 245.849 374.227 238.081Z" fill="url(#paint5_linear_9_2)"/>
<path d="M570.013 138.308L564.018 174.507H459.266L465.375 138.308H570.013ZM495.918 96.6786H544.108L517.185 258.67C516.431 263.119 516.544 266.588 517.524 269.077C518.505 271.49 520.126 273.187 522.389 274.168C524.727 275.148 527.517 275.638 530.76 275.638C533.022 275.638 535.322 275.45 537.66 275.072C539.998 274.62 541.77 274.281 542.977 274.054L544.787 309.914C542.072 310.744 538.414 311.649 533.814 312.629C529.289 313.609 523.935 314.213 517.751 314.439C505.986 314.892 496.031 313.346 487.886 309.801C479.742 306.181 473.897 300.638 470.352 293.172C466.808 285.706 466.054 276.317 468.09 265.005L495.918 96.6786Z" fill="url(#paint6_linear_9_2)"/>
<path d="M641.337 211.611L624.595 312.063H576.518L614.979 80.389H661.699L647.219 168.964H649.142C654.723 158.707 662.378 150.676 672.106 144.869C681.835 138.986 693.335 136.045 706.608 136.045C718.675 136.045 728.743 138.685 736.812 143.964C744.957 149.167 750.726 156.671 754.12 166.475C757.513 176.204 758.079 187.855 755.817 201.43L737.264 312.063H689.187L706.156 210.027C707.89 199.318 706.495 190.985 701.97 185.027C697.521 179.069 690.432 176.09 680.703 176.09C674.142 176.09 668.109 177.486 662.604 180.276C657.098 183.066 652.46 187.139 648.69 192.493C644.994 197.772 642.543 204.145 641.337 211.611Z" fill="url(#paint7_linear_9_2)"/>
<path d="M711.376 391.702L721.368 332.878L879.74 205.615C893.314 194.303 904.815 184.122 914.242 175.072C923.795 166.023 931.336 157.161 936.866 148.489C942.523 139.69 946.23 130.201 947.99 120.02C949.875 108.707 948.933 98.9662 945.162 90.7962C941.517 82.5006 935.609 76.1532 927.44 71.754C919.395 67.2291 909.717 64.9667 898.405 64.9667C886.59 64.9667 875.843 67.3548 866.165 72.1311C856.487 76.9073 848.443 83.7575 842.032 92.6816C835.622 101.606 831.349 112.227 829.212 124.544H751.723C755.996 99.2804 765.486 77.3473 780.192 58.7449C794.898 40.1426 813.375 25.7509 835.622 15.5699C857.869 5.3889 882.505 0.298401 909.529 0.298401C937.181 0.298401 960.434 5.20037 979.287 15.0043C998.267 24.6825 1012.03 38.1315 1020.58 55.3513C1029.12 72.571 1031.51 92.3045 1027.74 114.552C1025.23 129.258 1019.89 143.712 1011.72 157.915C1003.55 171.993 990.725 187.704 973.254 205.05C955.783 222.27 931.839 242.946 901.421 267.078L835.999 322.32L835.433 324.959H997.764L986.64 391.702H711.376Z" fill="url(#paint8_linear_9_2)"/>
<defs>
<linearGradient id="paint0_linear_9_2" x1="1049.31" y1="420.723" x2="665.582" y2="394.977" gradientUnits="userSpaceOnUse">
<stop stop-color="#F43417"/>
<stop offset="1" stop-color="#8E1F0D"/>
</linearGradient>
<linearGradient id="paint1_linear_9_2" x1="1049.31" y1="420.723" x2="665.582" y2="394.977" gradientUnits="userSpaceOnUse">
<stop stop-color="#F43417"/>
<stop offset="1" stop-color="#8E1F0D"/>
</linearGradient>
<linearGradient id="paint2_linear_9_2" x1="1049.31" y1="420.723" x2="665.582" y2="394.977" gradientUnits="userSpaceOnUse">
<stop stop-color="#F43417"/>
<stop offset="1" stop-color="#8E1F0D"/>
</linearGradient>
<linearGradient id="paint3_linear_9_2" x1="1049.31" y1="420.723" x2="665.582" y2="394.977" gradientUnits="userSpaceOnUse">
<stop stop-color="#F43417"/>
<stop offset="1" stop-color="#8E1F0D"/>
</linearGradient>
<linearGradient id="paint4_linear_9_2" x1="1049.31" y1="420.723" x2="665.582" y2="394.977" gradientUnits="userSpaceOnUse">
<stop stop-color="#F43417"/>
<stop offset="1" stop-color="#8E1F0D"/>
</linearGradient>
<linearGradient id="paint5_linear_9_2" x1="1049.31" y1="420.723" x2="665.582" y2="394.977" gradientUnits="userSpaceOnUse">
<stop stop-color="#F43417"/>
<stop offset="1" stop-color="#8E1F0D"/>
</linearGradient>
<linearGradient id="paint6_linear_9_2" x1="1049.31" y1="420.723" x2="665.582" y2="394.977" gradientUnits="userSpaceOnUse">
<stop stop-color="#F43417"/>
<stop offset="1" stop-color="#8E1F0D"/>
</linearGradient>
<linearGradient id="paint7_linear_9_2" x1="1049.31" y1="420.723" x2="665.582" y2="394.977" gradientUnits="userSpaceOnUse">
<stop stop-color="#F43417"/>
<stop offset="1" stop-color="#8E1F0D"/>
</linearGradient>
<linearGradient id="paint8_linear_9_2" x1="1049.31" y1="420.723" x2="665.582" y2="394.977" gradientUnits="userSpaceOnUse">
<stop stop-color="#F43417"/>
<stop offset="1" stop-color="#8E1F0D"/>
</linearGradient>
</defs>
</svg>
